<svg class="svg-icon" style="width: 1em; height: 1em;vertical-align: middle;fill: #000000;overflow: hidden;" viewBox="0 0 1024 1024" version="1.1" xmlns="http://www.w3.org/2000/svg"><path d="M795.2 313.6c-52.8-97.6-155.2-160-267.2-160-137.6 0-259.2 94.4-292.8 225.6-8-1.6-17.6-1.6-27.2-1.6-115.2 0-208 92.8-208 208s92.8 208 208 208h80c17.6 0 32-14.4 32-32s-14.4-32-32-32h-80c-80 0-144-64-144-144s64-144 144-144c14.4 0 28.8 1.6 41.6 6.4l35.2 11.2 4.8-36.8c17.6-116.8 120-204.8 236.8-204.8 94.4 0 180.8 56 219.2 142.4l9.6 19.2 25.6-1.6h3.2c97.6 0 176 78.4 176 176 0 96-78.4 176-176 176h-48c-17.6 0-32 14.4-32 32s14.4 32 32 32h48c132.8 0 240-107.2 240-240 0-128-100.8-233.6-228.8-240z"  /><path d="M617.6 675.2L544 748.8V473.6c0-17.6-14.4-32-32-32s-32 14.4-32 32v275.2l-73.6-73.6c-12.8-12.8-32-12.8-44.8 0-12.8 12.8-12.8 32 0 44.8l150.4 150.4 150.4-150.4c12.8-12.8 12.8-32 0-44.8-12.8-12.8-32-12.8-44.8 0z"  /></svg>