<svg width="24" height="25" viewBox="0 0 24 25" fill="none" xmlns="http://www.w3.org/2000/svg">
<g clip-path="url(#clip0_144_1421)">
<path d="M14.2087 11.3831C13.5188 11.3831 12.9742 11.9761 12.9742 12.7144C12.9742 13.4526 13.5309 14.0457 14.2087 14.0457C14.8985 14.0457 15.4432 13.4526 15.4432 12.7144C15.4432 11.9761 14.8864 11.3831 14.2087 11.3831ZM9.79113 11.3831C9.10127 11.3831 8.55664 11.9761 8.55664 12.7144C8.55664 13.4526 9.11337 14.0457 9.79113 14.0457C10.481 14.0457 11.0256 13.4526 11.0256 12.7144C11.0377 11.9761 10.481 11.3831 9.79113 11.3831Z" fill="white"/>
<path d="M20.1027 0.714355H3.8849C2.51727 0.714355 1.40381 1.82782 1.40381 3.19545V19.4133C1.40381 20.7809 2.51727 21.8944 3.8849 21.8944H17.6096L16.9681 19.6796L18.5173 21.1077L19.9817 22.4511L22.5959 24.7144V3.19545C22.5838 1.82782 21.4704 0.714355 20.1027 0.714355ZM15.431 16.3876C15.431 16.3876 14.9953 15.8672 14.6323 15.4193C16.2177 14.9715 16.8229 13.9912 16.8229 13.9912C16.3267 14.318 15.8546 14.5479 15.431 14.7053C14.8259 14.9594 14.245 15.1168 13.6761 15.2257C12.5142 15.4436 11.4492 15.383 10.5415 15.2136C9.85161 15.0805 9.25857 14.8989 8.76236 14.6932C8.48399 14.5843 8.18142 14.4511 7.87885 14.2817C7.84254 14.2575 7.80623 14.2454 7.76992 14.2212C7.74572 14.2091 7.73361 14.197 7.72151 14.197C7.50366 14.0759 7.38263 13.9912 7.38263 13.9912C7.38263 13.9912 7.96357 14.9473 9.50063 15.4073C9.13755 15.8672 8.68974 16.3997 8.68974 16.3997C6.015 16.315 4.99836 14.5722 4.99836 14.5722C4.99836 10.7113 6.74118 7.57669 6.74118 7.57669C8.48399 6.28169 10.13 6.318 10.13 6.318L10.251 6.46323C8.07249 7.08048 7.08006 8.0366 7.08006 8.0366C7.08006 8.0366 7.34632 7.89137 7.79413 7.69772C9.08913 7.12889 10.1179 6.98365 10.5415 6.93524C10.6141 6.92315 10.6746 6.91104 10.7472 6.91104C11.4855 6.81421 12.3206 6.79001 13.192 6.88683C14.3418 7.01996 15.5763 7.35884 16.835 8.0366C16.835 8.0366 15.8788 7.12889 13.8214 6.51164L13.9908 6.318C13.9908 6.318 15.6489 6.28169 17.3796 7.57669C17.3796 7.57669 19.1224 10.7113 19.1224 14.5722C19.1224 14.5601 18.1058 16.3029 15.431 16.3876V16.3876Z" fill="white"/>
</g>
<defs>
<clipPath id="clip0_144_1421">
<rect width="24" height="24" fill="white" transform="translate(0 0.714355)"/>
</clipPath>
</defs>
</svg>
