<svg width="24" height="25" viewBox="0 0 24 25" fill="none" xmlns="http://www.w3.org/2000/svg">
<path d="M22.6819 0.714355H1.32417C0.972975 0.714355 0.636169 0.853865 0.387839 1.10219C0.13951 1.35052 0 1.68733 0 2.03852V23.3983C0 23.7495 0.13951 24.0863 0.387839 24.3347C0.636169 24.583 0.972975 24.7225 1.32417 24.7225H12.8179V15.4269H9.69289V11.8027H12.8179V9.12994C12.8179 6.02935 14.7125 4.34053 17.479 4.34053C18.4126 4.3372 19.3456 4.38481 20.274 4.48314V7.72429H18.3611C16.8556 7.72429 16.5643 8.43934 16.5643 9.48848V11.8027H20.1518L19.6853 15.4269H16.5643V24.7245H22.6758C23.0269 24.724 23.3634 24.5843 23.6116 24.3361C23.8598 24.0879 23.9995 23.7514 24 23.4004V2.04056C24.0005 1.69007 23.8621 1.35367 23.615 1.10507C23.368 0.856476 23.0324 0.715973 22.6819 0.714355Z" fill="white"/>
</svg>
