<svg width="24" height="25" viewBox="0 0 24 25" fill="none" xmlns="http://www.w3.org/2000/svg">
<path d="M12.0055 6.5535C8.59833 6.5535 5.85011 9.30171 5.85011 12.7089C5.85011 16.116 8.59833 18.8642 12.0055 18.8642C15.4126 18.8642 18.1608 16.116 18.1608 12.7089C18.1608 9.30171 15.4126 6.5535 12.0055 6.5535ZM12.0055 16.7106C9.80368 16.7106 8.00368 14.916 8.00368 12.7089C8.00368 10.5017 9.79833 8.70707 12.0055 8.70707C14.2126 8.70707 16.0073 10.5017 16.0073 12.7089C16.0073 14.916 14.2073 16.7106 12.0055 16.7106ZM19.8483 6.30171C19.8483 7.09992 19.2055 7.73742 18.4126 7.73742C17.6144 7.73742 16.9769 7.09457 16.9769 6.30171C16.9769 5.50885 17.6198 4.86599 18.4126 4.86599C19.2055 4.86599 19.8483 5.50885 19.8483 6.30171ZM23.9251 7.75885C23.834 5.83564 23.3948 4.13207 21.9858 2.72849C20.5823 1.32492 18.8787 0.885638 16.9555 0.789209C14.9733 0.676709 9.03226 0.676709 7.05011 0.789209C5.13225 0.88028 3.42868 1.31957 2.01975 2.72314C0.610826 4.12671 0.176897 5.83028 0.0804687 7.7535C-0.0320312 9.73564 -0.0320312 15.6767 0.0804687 17.6589C0.17154 19.5821 0.610826 21.2856 2.01975 22.6892C3.42868 24.0928 5.1269 24.5321 7.05011 24.6285C9.03226 24.741 14.9733 24.741 16.9555 24.6285C18.8787 24.5374 20.5823 24.0981 21.9858 22.6892C23.3894 21.2856 23.8287 19.5821 23.9251 17.6589C24.0376 15.6767 24.0376 9.741 23.9251 7.75885ZM21.3644 19.7856C20.9465 20.8356 20.1376 21.6446 19.0823 22.0678C17.5019 22.6946 13.7519 22.5499 12.0055 22.5499C10.259 22.5499 6.50368 22.6892 4.92868 22.0678C3.87868 21.6499 3.06975 20.841 2.64654 19.7856C2.01975 18.2053 2.1644 14.4553 2.1644 12.7089C2.1644 10.9624 2.02511 7.20707 2.64654 5.63207C3.0644 4.58207 3.87333 3.77314 4.92868 3.34992C6.50904 2.72314 10.259 2.86778 12.0055 2.86778C13.7519 2.86778 17.5073 2.72849 19.0823 3.34992C20.1323 3.76778 20.9412 4.57671 21.3644 5.63207C21.9912 7.21242 21.8465 10.9624 21.8465 12.7089C21.8465 14.4553 21.9912 18.2106 21.3644 19.7856Z" fill="white"/>
</svg>
