<svg width="24" height="25" viewBox="0 0 24 25" fill="none" xmlns="http://www.w3.org/2000/svg">
<path d="M21.829 0.714355H2.17099C0.972 0.714355 0 1.68636 0 2.88535V22.5433C0 23.7424 0.972 24.7144 2.17099 24.7144H21.8289C23.028 24.7144 24 23.7424 24 22.5433V2.88535C24 1.68636 23.028 0.714355 21.829 0.714355ZM7.42662 21.4375C7.42662 21.7865 7.14377 22.0693 6.79483 22.0693H4.10544C3.7565 22.0693 3.47365 21.7865 3.47365 21.4375V10.1638C3.47365 9.81482 3.7565 9.53197 4.10544 9.53197H6.79483C7.14377 9.53197 7.42662 9.81482 7.42662 10.1638V21.4375ZM5.45014 8.46924C4.0391 8.46924 2.8952 7.32535 2.8952 5.91431C2.8952 4.50328 4.0391 3.35938 5.45014 3.35938C6.86117 3.35938 8.00507 4.50328 8.00507 5.91431C8.00507 7.32535 6.86124 8.46924 5.45014 8.46924ZM21.4813 21.4884C21.4813 21.8092 21.2212 22.0693 20.9004 22.0693H18.0145C17.6937 22.0693 17.4335 21.8092 17.4335 21.4884V16.2004C17.4335 15.4115 17.6649 12.7436 15.372 12.7436C13.5934 12.7436 13.2327 14.5697 13.1602 15.3892V21.4884C13.1602 21.8092 12.9002 22.0693 12.5793 22.0693H9.78817C9.46737 22.0693 9.20727 21.8092 9.20727 21.4884V10.1129C9.20727 9.79207 9.46737 9.53197 9.78817 9.53197H12.5793C12.9001 9.53197 13.1602 9.79207 13.1602 10.1129V11.0964C13.8197 10.1067 14.7998 9.34279 16.8866 9.34279C21.5077 9.34279 21.4813 13.66 21.4813 16.0321V21.4884Z" fill="white"/>
</svg>
